<svg xmlns="http://www.w3.org/2000/svg" xmlns:xlink="http://www.w3.org/1999/xlink" width="100%" height="100%" version="1.1" viewBox="0 0 100 100" xml:space="preserve" style="fill-rule:evenodd;clip-rule:evenodd;stroke-linejoin:round;stroke-miterlimit:2"><path d="M50,16.667c-9.143,-0 -16.667,7.523 -16.667,16.666c0,9.143 7.524,16.667 16.667,16.667c9.143,0 16.667,-7.524 16.667,-16.667c-0,-9.143 -7.524,-16.666 -16.667,-16.666Zm-8.333,37.5c-9.143,-0 -16.667,7.523 -16.667,16.666l0,4.167c0,4.572 3.762,8.333 8.333,8.333l33.334,0c4.571,0 8.333,-3.761 8.333,-8.333l0,-4.167c0,-9.143 -7.524,-16.666 -16.667,-16.666l-16.666,-0Z" style="fill:#fef08a"/></svg>