<svg xmlns="http://www.w3.org/2000/svg" xmlns:xlink="http://www.w3.org/1999/xlink" width="100%" height="100%" version="1.1" viewBox="0 0 1330 800" xml:space="preserve" style="fill-rule:evenodd;clip-rule:evenodd;stroke-linejoin:round;stroke-miterlimit:2"><g><g><g><g id="icon-0"><g><path d="M665.002,0c-0,0 -111.151,123.719 -111.151,276.374c-0,137.501 40.398,251.499 93.282,272.769c2.595,-100.169 17.869,-236.721 17.869,-236.721c-0,-0 15.272,136.552 17.868,236.721c52.883,-21.27 93.282,-135.268 93.282,-272.769c-0,-152.655 -111.15,-276.374 -111.15,-276.374" style="fill:#fef08a;fill-rule:nonzero"/><path d="M888.15,312.038c-98.895,95.541 -152.836,203.796 -131.386,256.607c73.864,-67.724 182.695,-151.609 182.695,-151.609c-0,-0 -87.61,105.85 -157.845,177.324c52.029,23.251 162.098,-26.906 260.992,-122.446c109.756,-106.055 121.521,-271.964 121.521,-271.964c-0,0 -166.209,6.032 -275.99,112.088" style="fill:#fef08a;fill-rule:nonzero"/><path d="M165.873,199.95c0,0 11.776,165.896 121.544,271.964c98.893,95.54 208.938,145.697 260.982,122.446c-70.235,-71.474 -157.834,-177.337 -157.834,-177.337c-0,0 108.82,83.898 182.671,151.622c21.449,-52.8 -32.48,-161.066 -131.374,-256.607c-109.769,-106.056 -275.989,-112.088 -275.989,-112.088" style="fill:#fef08a;fill-rule:nonzero"/></g></g></g></g></g><g><g><g id="textblocktransform"><g id="textblock"><g><g><g><g><path id="text-0" d="M357.658,671.224l-0,87.632c-0,2.105 -1.263,3.684 -3.79,4.736c-2.561,1.053 -5.807,1.807 -9.737,2.263c-3.964,0.422 -8.052,0.632 -12.263,0.632c-30.351,0 -53.596,-7.368 -69.737,-22.105c-16.14,-14.737 -24.21,-36.404 -24.21,-65c0,-19.298 3.649,-35.877 10.947,-49.737c7.264,-13.86 17.176,-24.526 29.737,-32c12.527,-7.439 26.597,-11.158 42.211,-11.158c5.263,0 10.877,0.228 16.842,0.684c5.965,0.421 10.877,1.246 14.737,2.474c1.579,0.527 2.631,1.017 3.157,1.474c0.527,0.421 0.79,1.246 0.79,2.474l0,11.052c0,1.754 -0.298,2.842 -0.895,3.263c-0.631,0.456 -1.473,0.421 -2.526,-0.105c-4.386,-2.456 -8.982,-4.088 -13.789,-4.895c-4.843,-0.772 -9.983,-1.157 -15.421,-1.157c-5.965,-0 -12.72,1.227 -20.263,3.683c-7.545,2.457 -14.738,6.492 -21.58,12.106c-6.842,5.614 -12.491,13.333 -16.947,23.157c-4.491,9.825 -6.737,22.106 -6.737,36.843c0,15.438 2.246,27.982 6.737,37.631c4.456,9.65 10.158,17.106 17.106,22.369c6.911,5.263 14.28,8.859 22.105,10.79c7.789,1.929 15.105,2.894 21.947,2.894c7.018,-0 11.14,-0.965 12.368,-2.894l0,-62.895c0,-1.053 -0.175,-1.755 -0.526,-2.106c-0.351,-0.351 -0.965,-0.526 -1.842,-0.526l-38.421,0c-0.877,0 -1.439,-0.176 -1.684,-0.527c-0.281,-0.35 -0.422,-0.877 -0.422,-1.578l0,-11.053c0,-0.702 0.141,-1.228 0.422,-1.579c0.245,-0.35 0.807,-0.526 1.684,-0.526l56.579,-0c1.579,-0 2.544,0.21 2.895,0.632c0.351,0.456 0.526,1.473 0.526,3.052Zm81.316,95.263c-14.211,0 -25.263,-2.719 -33.158,-8.158c-7.895,-5.438 -13.386,-12.982 -16.474,-22.631c-3.053,-9.649 -4.579,-20.702 -4.579,-33.158c-0,-12.281 1.702,-23.193 5.106,-32.737c3.438,-9.579 9.105,-17.087 16.999,-22.526c7.895,-5.439 18.597,-8.158 32.106,-8.158c13.684,-0 24.473,2.719 32.368,8.158c7.895,5.439 13.544,12.947 16.947,22.526c3.439,9.544 5.158,20.456 5.158,32.737c0,12.28 -1.543,23.245 -4.631,32.895c-3.053,9.649 -8.491,17.228 -16.316,22.737c-7.79,5.543 -18.965,8.315 -33.526,8.315Zm-0,-15c13.158,0 22.315,-4.263 27.473,-12.789c5.194,-8.491 7.79,-20.457 7.79,-35.895c-0,-15.439 -2.807,-27.281 -8.421,-35.527c-5.614,-8.245 -14.561,-12.368 -26.842,-12.368c-12.105,0 -21.018,4.123 -26.737,12.368c-5.684,8.246 -8.526,20.088 -8.526,35.527c-0,15.614 2.631,27.632 7.894,36.052c5.263,8.422 14.386,12.632 27.369,12.632Zm195.526,-80.263l-0,87.632c-0,2.105 -1.28,3.684 -3.842,4.736c-2.526,1.053 -5.772,1.807 -9.737,2.263c-3.93,0.422 -8,0.632 -12.21,0.632c-30.351,0 -53.597,-7.368 -69.737,-22.105c-16.14,-14.737 -24.211,-36.404 -24.211,-65c0,-19.298 3.632,-35.877 10.895,-49.737c7.298,-13.86 17.211,-24.526 29.737,-32c12.561,-7.439 26.649,-11.158 42.263,-11.158c5.263,0 10.859,0.228 16.789,0.684c6,0.421 10.93,1.246 14.79,2.474c1.544,0.527 2.597,1.017 3.158,1.474c0.526,0.421 0.789,1.246 0.789,2.474l0,11.052c0,1.754 -0.315,2.842 -0.947,3.263c-0.597,0.456 -1.421,0.421 -2.474,-0.105c-4.386,-2.456 -9,-4.088 -13.842,-4.895c-4.807,-0.772 -9.93,-1.157 -15.368,-1.157c-5.965,-0 -12.737,1.227 -20.316,3.683c-7.509,2.457 -14.685,6.492 -21.527,12.106c-6.842,5.614 -12.509,13.333 -16.999,23.157c-4.456,9.825 -6.685,22.106 -6.685,36.843c0,15.438 2.229,27.982 6.685,37.631c4.49,9.65 10.193,17.106 17.105,22.369c6.947,5.263 14.315,8.859 22.105,10.79c7.825,1.929 15.158,2.894 22,2.894c7.018,-0 11.14,-0.965 12.368,-2.894l0,-62.895c0,-1.053 -0.175,-1.755 -0.526,-2.106c-0.351,-0.351 -0.965,-0.526 -1.842,-0.526l-38.421,0c-0.877,0 -1.456,-0.176 -1.737,-0.527c-0.281,-0.35 -0.421,-0.877 -0.421,-1.578l-0,-11.053c-0,-0.702 0.14,-1.228 0.421,-1.579c0.281,-0.35 0.86,-0.526 1.737,-0.526l56.579,-0c1.579,-0 2.544,0.21 2.895,0.632c0.351,0.456 0.526,1.473 0.526,3.052Zm72.053,-31.842c10.702,-0 19.737,1.404 27.105,4.21c0.877,0.527 1.544,0.965 2,1.316c0.421,0.351 0.544,0.965 0.368,1.843l-2.631,9.999c-0.176,0.878 -0.474,1.404 -0.895,1.579c-0.456,0.176 -1.123,0.088 -2,-0.263c-3.158,-1.052 -6.579,-1.807 -10.263,-2.263c-3.684,-0.421 -7.105,-0.632 -10.263,-0.632c-2.807,0 -5.702,0.264 -8.685,0.79c-2.982,0.526 -5.649,1.088 -7.999,1.684c-2.386,0.632 -4.193,1.211 -5.422,1.737c-0.702,0.526 -1.579,1.14 -2.631,1.842c-1.053,0.702 -1.579,2.281 -1.579,4.737l-0,96.053c-0,1.227 -0.175,2.017 -0.526,2.368c-0.351,0.351 -0.965,0.526 -1.842,0.526l-14.211,0c-0.527,0 -1,-0.175 -1.421,-0.526c-0.456,-0.351 -0.684,-0.965 -0.684,-1.842l-0,-107.632c-0,-2.632 0.35,-4.386 1.052,-5.263c0.702,-0.877 1.755,-1.667 3.158,-2.368c5.263,-2.457 11.404,-4.386 18.421,-5.79c7.018,-1.403 13.334,-2.105 18.948,-2.105Zm41.052,63.158c0,-8.246 0.842,-16.141 2.527,-23.685c1.649,-7.543 4.403,-14.35 8.263,-20.42c3.86,-6.036 9.175,-10.772 15.947,-14.211c6.737,-3.404 15.369,-5.105 25.895,-5.105c10.701,-0 19.298,1.578 25.789,4.737c6.492,3.157 11.369,7.368 14.632,12.631c3.228,5.264 5.421,11.053 6.579,17.369c1.123,6.316 1.684,12.631 1.684,18.947c0,6.491 -0.649,10.526 -1.947,12.105c-1.334,1.579 -3.316,2.369 -5.948,2.369l-71.842,-0c-0.526,-0 -1.087,0.175 -1.684,0.526c-0.632,0.351 -0.947,1.316 -0.947,2.895c-0,8.07 1.316,15.21 3.947,21.421c2.632,6.246 6.719,11.123 12.263,14.631c5.509,3.509 12.474,5.263 20.895,5.263c5.79,0 11.842,-0.754 18.158,-2.263c6.315,-1.473 11.579,-3.263 15.789,-5.368c1.404,-0.877 2.544,-1.404 3.421,-1.579c0.877,-0.176 1.667,0.526 2.369,2.105l3.421,6.579c0.526,1.053 0.666,1.79 0.421,2.211c-0.281,0.456 -0.947,1.035 -2,1.736c-5.614,3.685 -12.404,6.439 -20.368,8.264c-8,1.859 -16.123,2.789 -24.369,2.789c-10.877,0 -19.737,-1.631 -26.579,-4.894c-6.842,-3.229 -12.193,-7.79 -16.053,-13.685c-3.859,-5.86 -6.526,-12.649 -7.999,-20.368c-1.509,-7.72 -2.264,-16.053 -2.264,-25Zm82.106,-12.895c-0,-6.316 -0.79,-12.158 -2.369,-17.526c-1.579,-5.333 -4.508,-9.667 -8.789,-13c-4.316,-3.333 -10.597,-5 -18.842,-5c-5.965,-0 -11.053,1.14 -15.264,3.421c-4.21,2.28 -7.543,5.21 -10,8.789c-2.456,3.614 -4.298,7.562 -5.526,11.842c-1.228,4.316 -2.018,8.404 -2.368,12.264c-0,1.754 0.14,2.93 0.42,3.526c0.246,0.632 1.071,0.947 2.474,0.947l55.79,0c1.754,0 2.983,-0.263 3.684,-0.789c0.702,-0.526 0.965,-2.018 0.79,-4.474Zm38.947,12.895c-0,-8.246 0.824,-16.141 2.474,-23.685c1.684,-7.543 4.456,-14.35 8.315,-20.42c3.86,-6.036 9.158,-10.772 15.895,-14.211c6.772,-3.404 15.421,-5.105 25.948,-5.105c10.701,-0 19.298,1.578 25.789,4.737c6.491,3.157 11.351,7.368 14.579,12.631c3.263,5.264 5.456,11.053 6.579,17.369c1.158,6.316 1.737,12.631 1.737,18.947c-0,6.491 -0.667,10.526 -2,12.105c-1.299,1.579 -3.263,2.369 -5.895,2.369l-71.842,-0c-0.526,-0 -1.105,0.175 -1.737,0.526c-0.597,0.351 -0.895,1.316 -0.895,2.895c0,8.07 1.316,15.21 3.947,21.421c2.632,6.246 6.702,11.123 12.211,14.631c5.544,3.509 12.526,5.263 20.948,5.263c5.789,0 11.841,-0.754 18.157,-2.263c6.316,-1.473 11.579,-3.263 15.79,-5.368c1.403,-0.877 2.544,-1.404 3.421,-1.579c0.877,-0.176 1.667,0.526 2.368,2.105l3.421,6.579c0.527,1.053 0.649,1.79 0.369,2.211c-0.246,0.456 -0.895,1.035 -1.947,1.736c-5.614,3.685 -12.422,6.439 -20.422,8.264c-7.964,1.859 -16.07,2.789 -24.316,2.789c-10.877,0 -19.736,-1.631 -26.578,-4.894c-6.843,-3.229 -12.193,-7.79 -16.053,-13.685c-3.86,-5.86 -6.544,-12.649 -8.053,-20.368c-1.473,-7.72 -2.21,-16.053 -2.21,-25Zm82.105,-12.895c-0,-6.316 -0.789,-12.158 -2.368,-17.526c-1.579,-5.333 -4.526,-9.667 -8.842,-13c-4.281,-3.333 -10.544,-5 -18.79,-5c-5.965,-0 -11.052,1.14 -15.263,3.421c-4.211,2.28 -7.544,5.21 -10,8.789c-2.456,3.614 -4.298,7.562 -5.526,11.842c-1.228,4.316 -2.018,8.404 -2.369,12.264c0,1.754 0.123,2.93 0.369,3.526c0.28,0.632 1.123,0.947 2.526,0.947l55.789,0c1.755,0 2.983,-0.263 3.685,-0.789c0.701,-0.526 0.965,-2.018 0.789,-4.474Zm62.895,75.263l-14.737,0c-1.403,0 -2.105,-0.701 -2.105,-2.105l-0,-111.842c-0,-1.053 0.351,-1.983 1.052,-2.79c0.702,-0.772 2.281,-1.596 4.737,-2.473c2.281,-0.702 5.649,-1.544 10.105,-2.527c4.492,-0.947 9.316,-1.859 14.474,-2.736c5.193,-0.878 9.983,-1.316 14.368,-1.316c13.51,-0 23.895,2.631 31.158,7.894c7.299,5.263 12.352,12.422 15.158,21.474c2.807,9.018 4.211,18.965 4.211,29.842c-0,8.071 -0.175,16.176 -0.526,24.316c-0.351,8.175 -0.755,15.684 -1.211,22.526c-0.421,6.842 -0.807,12.281 -1.158,16.316c-0.175,1.579 -0.491,2.544 -0.947,2.895c-0.421,0.351 -1.421,0.526 -3,0.526l-11.316,0c-1.403,0 -2.369,-0.228 -2.895,-0.684c-0.526,-0.421 -0.702,-1.245 -0.526,-2.474c0,-1.053 0.123,-3.859 0.368,-8.421c0.281,-4.561 0.597,-10.052 0.948,-16.473c0.351,-6.387 0.649,-13.053 0.894,-20.001c0.281,-6.912 0.422,-13.263 0.422,-19.052c-0,-9.474 -1.141,-17.369 -3.421,-23.684c-2.281,-6.316 -5.755,-11.053 -10.421,-14.211c-4.632,-3.158 -10.632,-4.737 -18,-4.737c-3.86,0 -7.632,0.351 -11.316,1.053c-3.684,0.702 -7.018,1.579 -10,2.632c-1.053,0.175 -2.07,0.736 -3.053,1.684c-0.947,0.982 -1.421,2.614 -1.421,4.894l0,97.369c0,1.404 -0.614,2.105 -1.842,2.105Z" style="fill:#fef08a;fill-rule:nonzero"/></g></g></g></g></g></g></g></g></svg>